<svg xmlns="http://www.w3.org/2000/svg" width="27.066" height="25" viewBox="0 0 27.066 25">
  <g id="Icon_ionic-ios-cart" data-name="Icon ionic-ios-cart" transform="translate(-3.382 -4.493)">
    <path id="Path_8" data-name="Path 8" d="M12.687,29.687a1.562,1.562,0,1,1-1.562-1.562A1.562,1.562,0,0,1,12.687,29.687Z" transform="translate(-0.459 -1.756)" fill="#fff"/>
    <path id="Path_9" data-name="Path 9" d="M28.472,29.687a1.562,1.562,0,1,1-1.562-1.562A1.562,1.562,0,0,1,28.472,29.687Z" transform="translate(-1.632 -1.756)" fill="#fff"/>
    <path id="Path_10" data-name="Path 10" d="M30.439,8.938a.383.383,0,0,0-.338-.273L8.9,6.615a.653.653,0,0,1-.488-.306A6.628,6.628,0,0,0,7.619,5.1c-.5-.612-1.445-.592-3.176-.605a.948.948,0,0,0-1.061.918A.93.93,0,0,0,4.4,6.328a8.648,8.648,0,0,1,1.692.124c.306.091.553.592.644,1.028a.024.024,0,0,0,.007.02c.013.078.13.664.13.67l2.6,13.772a5.062,5.062,0,0,0,.944,2.324,2.6,2.6,0,0,0,2.141,1.054h15.4a.925.925,0,0,0,.937-.872.907.907,0,0,0-.911-.95H12.546a.756.756,0,0,1-.54-.182,2.921,2.921,0,0,1-.748-1.692l-.28-1.543A.036.036,0,0,1,11,20.042l18.075-3.059a.38.38,0,0,0,.319-.338l1.041-7.537A.371.371,0,0,0,30.439,8.938Z" transform="translate(0 0)" fill="#fff"/>
  </g>
</svg>
