<svg xmlns="http://www.w3.org/2000/svg" width="24.863" height="22.965" viewBox="0 0 24.863 22.965">
  <g id="Icon_ionic-ios-cart" data-name="Icon ionic-ios-cart" transform="translate(-3.382 -4.493)">
    <path id="Path_8" data-name="Path 8" d="M12.432,29.56A1.435,1.435,0,1,1,11,28.125,1.435,1.435,0,0,1,12.432,29.56Z" transform="translate(-0.925 -3.537)" fill="#fff"/>
    <path id="Path_9" data-name="Path 9" d="M28.217,29.56a1.435,1.435,0,1,1-1.435-1.435A1.435,1.435,0,0,1,28.217,29.56Z" transform="translate(-3.288 -3.537)" fill="#fff"/>
    <path id="Path_10" data-name="Path 10" d="M28.236,8.576a.351.351,0,0,0-.311-.251L8.452,6.442A.6.6,0,0,1,8,6.161a6.088,6.088,0,0,0-.729-1.112c-.46-.562-1.327-.544-2.918-.556a.871.871,0,0,0-.975.843.855.855,0,0,0,.933.843,7.944,7.944,0,0,1,1.554.114c.281.084.508.544.592.945a.022.022,0,0,0,.006.018c.012.072.12.61.12.616L8.978,20.522a4.649,4.649,0,0,0,.867,2.134,2.386,2.386,0,0,0,1.967.969H25.958a.85.85,0,0,0,.861-.8.833.833,0,0,0-.837-.873H11.8a.7.7,0,0,1-.5-.167,2.683,2.683,0,0,1-.688-1.554l-.257-1.417a.033.033,0,0,1,.024-.036l16.6-2.81a.349.349,0,0,0,.293-.311l.957-6.923A.341.341,0,0,0,28.236,8.576Z" fill="#fff"/>
  </g>
</svg>
