<svg xmlns="http://www.w3.org/2000/svg" width="16.509" height="11.792" viewBox="0 0 16.509 11.792">
  <g id="Icon_ionic-md-cash" data-name="Icon ionic-md-cash" transform="translate(-2.25 -6.75)">
    <path id="Path_20" data-name="Path 20" d="M2.25,6.75v9.434H18.759V6.75ZM8.165,15H5.2a1.771,1.771,0,0,0-1.773-1.773V10.288A2.361,2.361,0,0,0,5.788,7.929H8.165a5.5,5.5,0,0,0-1.2,3.538A5.5,5.5,0,0,0,8.165,15Zm9.415-1.773A1.782,1.782,0,0,0,15.811,15H12.845a5.5,5.5,0,0,0,1.2-3.538,5.5,5.5,0,0,0-1.2-3.538h2.377a2.361,2.361,0,0,0,2.358,2.358Z" transform="translate(0)" fill="#363b64"/>
    <path id="Path_21" data-name="Path 21" d="M2.25,27H18.759v1.179H2.25Z" transform="translate(0 -9.637)" fill="#363b64"/>
  </g>
</svg>
