<svg xmlns="http://www.w3.org/2000/svg" width="20.893" height="25" viewBox="0 0 20.893 25">
  <g id="Icon_ionic-ios-clipboard" data-name="Icon ionic-ios-clipboard" transform="translate(-5.625 -2.25)">
    <g id="Group_1" data-name="Group 1" transform="translate(9.216 2.25)">
      <path id="Path_5" data-name="Path 5" d="M9.879,11.018V24.411a.925.925,0,0,0,.95.893H22.7a.925.925,0,0,0,.95-.893V11.018a.925.925,0,0,0-.95-.893H10.829A.925.925,0,0,0,9.879,11.018Z" transform="translate(-9.879 -3.875)" fill="#ade1f6"/>
      <path id="Path_6" data-name="Path 6" d="M21.017,4.984H20.008A2.589,2.589,0,0,0,19.289,3.2a2.867,2.867,0,0,0-4.262,0,2.589,2.589,0,0,0-.718,1.786h-.861a1.014,1.014,0,0,0-1.039.977v.865a.116.116,0,0,0,.119.112h9.259a.116.116,0,0,0,.119-.112v-1A.864.864,0,0,0,21.017,4.984Zm-3.733.865a.918.918,0,0,1-1.062-1,.93.93,0,0,1,.819-.77.918.918,0,0,1,1.062,1A.924.924,0,0,1,17.283,5.849Z" transform="translate(-10.273 -2.25)" fill="#ade1f6"/>
    </g>
    <path id="Path_7" data-name="Path 7" d="M24.619,3.372H20.155a.111.111,0,0,0-.095.179,2.725,2.725,0,0,1,.415.714.116.116,0,0,0,.113.073h.03c1.11,0,1.6.831,1.632,1.869h0v.848a.116.116,0,0,0,.119.112h1.2a.925.925,0,0,1,.95.893v16.6a.925.925,0,0,1-.95.893H8.557a.925.925,0,0,1-.95-.893V8.06a.925.925,0,0,1,.95-.893H9.821a.116.116,0,0,0,.119-.112V6.564c0-1.066.332-2.048,1.638-2.048H11.6a.108.108,0,0,0,.113-.089,2.1,2.1,0,0,1,.427-.882.111.111,0,0,0-.095-.179L7.512,3.361a1.843,1.843,0,0,0-1.887,1.78V24.354c0,2.327.849,3.125,1.9,3.125H24.648a1.816,1.816,0,0,0,1.87-1.758V5.158A1.843,1.843,0,0,0,24.619,3.372Z" transform="translate(0 -0.229)" fill="#ade1f6"/>
  </g>
</svg>
