<svg xmlns="http://www.w3.org/2000/svg" width="11.948" height="14.113" viewBox="0 0 11.948 14.113">
  <path id="Icon_awesome-paypal" data-name="Icon awesome-paypal" d="M3.47,10.357c-.109.6-.541,3.383-.669,4.17-.009.056-.031.078-.093.078H.386a.378.378,0,0,1-.377-.433L1.833,2.6a.632.632,0,0,1,.622-.526c4.74,0,5.138-.115,6.349.355,1.87.725,2.042,2.474,1.369,4.366C9.5,8.742,7.917,9.579,5.813,9.6c-1.351.022-2.163-.218-2.343.753Zm7.646-4.478c-.056-.04-.078-.056-.093.04a7.284,7.284,0,0,1-.274,1.046C9.507,10.506,6.066,10.2,4.385,10.2a.313.313,0,0,0-.339.293c-.7,4.369-.843,5.281-.843,5.281a.331.331,0,0,0,.33.4H5.508a.558.558,0,0,0,.541-.464c.022-.168-.034.19.448-2.841.143-.685.445-.613.912-.613,2.21,0,3.934-.9,4.447-3.495a2.764,2.764,0,0,0-.741-2.882Z" transform="translate(-0.006 -2.06)" fill="#363b64"/>
</svg>
