<svg xmlns="http://www.w3.org/2000/svg" width="19.999" height="20" viewBox="0 0 19.999 20">
  <path id="Icon_ionic-ios-person" data-name="Icon ionic-ios-person" d="M24.49,23.995c-.375-1.656-2.516-2.464-3.255-2.724a24.27,24.27,0,0,0-2.714-.521,2.757,2.757,0,0,1-1.255-.578,10.97,10.97,0,0,1-.083-2.568,7.725,7.725,0,0,0,.594-1.13,14.578,14.578,0,0,0,.438-1.974s.427,0,.578-.75a7.379,7.379,0,0,0,.385-1.745c-.031-.6-.359-.583-.359-.583a9.132,9.132,0,0,0,.354-2.672c.047-2.141-1.63-4.25-4.667-4.25-3.078,0-4.719,2.109-4.672,4.25a9.525,9.525,0,0,0,.349,2.672s-.328-.016-.359.583a7.379,7.379,0,0,0,.385,1.745c.146.75.578.75.578.75a14.578,14.578,0,0,0,.437,1.974,7.725,7.725,0,0,0,.594,1.13,10.97,10.97,0,0,1-.083,2.568,2.757,2.757,0,0,1-1.255.578,24.27,24.27,0,0,0-2.714.521c-.74.26-2.88,1.068-3.255,2.724a.416.416,0,0,0,.411.505H24.084A.415.415,0,0,0,24.49,23.995Z" transform="translate(-4.501 -4.5)" fill="#cfcdd3"/>
</svg>
