<svg xmlns="http://www.w3.org/2000/svg" width="26.016" height="20" viewBox="0 0 26.016 20">
  <g id="Icon_ionic-ios-exit" data-name="Icon ionic-ios-exit" transform="translate(-3.375 -6.75)">
    <path id="Path_11" data-name="Path 11" d="M10.125,9.252v6.692H21.376l-2.952-3A.814.814,0,0,1,19.581,11.8L23.9,16.181a.826.826,0,0,1,.231.569.776.776,0,0,1-.063.313.869.869,0,0,1-.169.256h0L19.581,21.7a.814.814,0,0,1-1.157-1.144l2.952-3H10.125v6.692a2.509,2.509,0,0,0,2.5,2.5H27.636a2.509,2.509,0,0,0,2.5-2.5v-15a2.509,2.509,0,0,0-2.5-2.5H12.627A2.509,2.509,0,0,0,10.125,9.252Z" transform="translate(-0.746 0)" fill="#fff"/>
    <path id="Path_12" data-name="Path 12" d="M4.188,17.086a.813.813,0,1,0,0,1.626H9.379V17.086Z" transform="translate(0 -1.143)" fill="#fff"/>
  </g>
</svg>
